<?xml version="1.0" encoding="utf-8"?>
<!-- Generator: Adobe Illustrator 24.3.0, SVG Export Plug-In . SVG Version: 6.00 Build 0)  -->
<svg version="1.1" id="be48e4cf-e14c-482e-b24c-ce5d97e5da8a"
	 xmlns="http://www.w3.org/2000/svg" xmlns:xlink="http://www.w3.org/1999/xlink" x="0px" y="0px" viewBox="0 0 534.2 457.9"
	 style="enable-background:new 0 0 534.2 457.9;" xml:space="preserve">
<style type="text/css">
	.st0{fill:#FFB8B8;}
	.st1{fill:#2F2E41;}
	.st2{fill:#FF4F5A;}
	.st3{fill:#3F3D56;}
	.st4{fill:#CCCCCC;}
</style>
<polygon class="st0" points="223.1,445.6 235.4,445.6 241.2,398.3 223.1,398.3 "/>
<path class="st1" d="M259.1,457l-38.5,0l0,0l0-14.9l0,0l23.6,0C252.4,442.1,259,448.8,259.1,457L259.1,457L259.1,457z"/>
<polygon class="st0" points="110,438.6 122,441 137.3,395.9 119.6,392.3 "/>
<path class="st1" d="M142.9,457l-37.7-7.8l0,0l3-14.6l0,0l23.2,4.8C139.3,441,144.5,448.9,142.9,457L142.9,457L142.9,457z"/>
<path class="st0" d="M143.3,286.4c-3.9-3.9-3.9-10.3,0.1-14.2c0.4-0.4,0.9-0.8,1.4-1.1l-9.5-34.4l17.7,5.7l6.3,31.8
	c2.9,4.8,1.3,11-3.5,13.9C151.7,290.4,146.5,289.8,143.3,286.4L143.3,286.4z"/>
<path class="st1" d="M219.6,428.3c-2.2,0-4.1-1.6-4.4-3.8l-22.8-125.9c-0.1-0.8-0.9-1.4-1.7-1.3c-0.5,0.1-0.9,0.4-1.1,0.9L138.5,416
	c-0.9,2.1-3.3,3.2-5.6,2.5l-17.9-6c-2.4-0.8-3.6-3.3-2.8-5.7c0-0.1,0.1-0.2,0.1-0.3l24.6-60.3l20.5-91l0.1-0.1
	c0.4-0.3,39.9-29.8,66.9-6.2c24.7,21.6,20.1,145,18.9,169.5c-0.1,2-1.5,3.7-3.4,4.1l-19.4,5.5C220.3,428.2,219.9,428.3,219.6,428.3z
	"/>
<circle class="st0" cx="180.8" cy="124" r="24.6"/>
<path class="st0" d="M228.6,275.4c-3.9-3.9-3.9-10.3,0.1-14.2c0.4-0.4,0.9-0.8,1.4-1.1l-9.5-34.4l17.7,5.7l6.3,31.8
	c2.9,4.8,1.3,11-3.5,13.9C237,279.4,231.9,278.8,228.6,275.4L228.6,275.4z"/>
<path class="st2" d="M153.6,265.6c-0.3,0-0.7-0.1-1-0.2c-10.4-4.2-2.1-86.5-1.7-90l0-0.1c0.3-0.6,0.5-1.2,0.8-1.7
	c5.2-11.7,17.4-18.6,30.1-17.3c12.9,1,23.8,10,27.1,22.5l19.2,70.4c0.7,2.4-0.8,4.9-3.1,5.5c-0.7,0.2-1.5,0.2-2.2,0.1
	c-15-3.3-51.2-9.3-64.7,7.8C156.4,264.6,155,265.6,153.6,265.6z"/>
<path class="st2" d="M228.1,258.8c-0.5,0-1-0.1-1.4-0.2c-1.2-0.4-2.1-1.2-2.6-2.4l-16.7-35.7L191,173.7c-1.4-4.1-0.3-8.7,2.8-11.7
	l0,0c4.4-4.2,11.5-4,15.7,0.4c0.8,0.9,1.5,1.9,2,3l21.7,46.8l16.9,30.5c1.2,2.2,0.4,4.9-1.8,6.1c0,0-0.1,0-0.1,0.1l-18.1,9.4
	C229.5,258.7,228.8,258.8,228.1,258.8z"/>
<path class="st2" d="M155,267.6c-0.2,0-0.3,0-0.5,0l-20.3-2.1c-2.5-0.3-4.3-2.5-4-4.9c0-0.1,0-0.1,0-0.2l5.8-39l12.3-48
	c1.1-4.2,4.5-7.4,8.8-8.2l0,0c6-1.1,11.8,3,12.8,9c0.2,1.2,0.2,2.4,0,3.6l-7.8,51l-2.8,34.8C159.3,265.8,157.3,267.6,155,267.6
	L155,267.6z"/>
<path class="st1" d="M184.7,110.8l20.4-1.5c1.4-9.5-3.8-18.7-12.7-22.4c-8.7-3.3-19.5,0.4-22.8,5.6c-16-1.4-30.1,10.4-31.5,26.4
	c-1.4,16,10.4,30.1,26.4,31.5c4.8,0.4,9.6-0.4,14-2.3C170.1,136.4,174.4,117.6,184.7,110.8z"/>
<path class="st1" d="M147.6,99.5c-6.3-5.8-14.1-10.4-22.6-11.4s-17.8,2.1-22.7,9.1s-4,18,2.8,23.1c7.9,5.9,9.6,17,3.7,24.9
	c-2.8,3.8-7,6.3-11.7,7C84.5,154.2,75,167.2,76,180s11.4,23.9,23.9,26.8s26.1-2.1,34.9-11.5s12.6-22.7,11.6-35.5
	s-6.6-24.9-14.7-34.9c-2.2-2.7-0.5-7,2.3-9s6.4-2.6,9.7-3.7s6.7-3.2,7.4-6.6S148,98.2,147.6,99.5z"/>
<path class="st3" d="M517.2,175h-141c-9.4,0-17-7.6-17-17V17c0-9.4,7.6-17,17-17h141c9.4,0,17,7.6,17,17v141
	C534.2,167.4,526.6,175,517.2,175z M376.2,2c-8.3,0-15,6.7-15,15v141c0,8.3,6.7,15,15,15h141c8.3,0,15-6.7,15-15V17
	c0-8.3-6.7-15-15-15H376.2z"/>
<path class="st2" d="M442.2,114.1c-5.9,0.1-11.5-2.4-15.4-6.7c-4.6-5-6.8-12.2-6.1-19.8c0.6-6.8,3.4-13.2,8.1-18.2
	c4.5-4.9,10.8-7.7,17.5-7.7c6.2,0,12,2.6,16.2,7.1c4.7,5.3,7,12.4,6.2,19.4v0c-0.7,7.7-3.7,14.3-8.7,19
	C455.1,111.7,448.7,114.2,442.2,114.1z M446.2,69c-9.3,0-17.3,8.4-18.2,19.2c-0.5,5.6,1.1,10.8,4.2,14.2c2.6,2.8,6.2,4.4,10,4.3
	c8.6,0,17.9-5.9,19.1-19.2v0c0.5-5-1-10-4.3-13.8C454.2,70.7,450.2,69,446.2,69L446.2,69z M464.9,87.9L464.9,87.9z"/>
<path class="st2" d="M477,114.2c-0.8,0-1.6-0.1-2.4-0.2c-4.3-0.7-8.1-3.2-10.5-6.8c-2.6-3.9-3.7-9.1-3.2-15l2.4-27.1
	c0.2-2,2-3.5,4-3.3c2,0.2,3.5,2,3.3,4l-2.4,27.1c-0.7,7.8,2.2,13,7.6,14c1.9,0.3,5.2-0.2,8.6-2.7c3.4-2.6,7.6-8,8.6-18.8
	c1.1-12.4-2.1-23.1-9.2-30.9c-7.5-8.1-18.7-12.4-32.6-12.4c-25.5,0-48.1,20.8-50.4,46.3c-0.4,4.8-0.1,9.6,1,14.3
	c0.5,2-0.7,3.9-2.7,4.4c-2,0.5-3.9-0.7-4.4-2.7l0,0c-1.3-5.5-1.7-11.1-1.2-16.7c3-29.7,27.8-52.5,57.7-53c16,0,29.2,5.1,38,14.8
	c8.4,9.2,12.4,22.1,11.1,36.5c-1.2,13.5-6.9,20.5-11.4,24C485.5,112.6,481.4,114.1,477,114.2z"/>
<path class="st2" d="M442.5,141.2c-12,0.1-23.7-4.2-32.8-12.1c-1.5-1.3-1.7-3.7-0.3-5.2c1.3-1.5,3.7-1.7,5.2-0.3c0,0,0,0,0,0
	c7.8,6.7,17.7,10.3,28,10.2c8.2,0,13.2-0.5,20.9-3.8c1.9-0.8,4,0.1,4.8,2c0.8,1.9-0.1,4-2,4.8c0,0,0,0,0,0
	C457.4,140.6,451.5,141.2,442.5,141.2z"/>
<path class="st4" d="M382,457.9H1c-0.6,0-1-0.4-1-1s0.4-1,1-1h381c0.6,0,1,0.4,1,1S382.6,457.9,382,457.9z"/>
</svg>
