<?xml version="1.0" encoding="utf-8"?>
<!-- Generator: Adobe Illustrator 24.3.0, SVG Export Plug-In . SVG Version: 6.00 Build 0)  -->
<svg version="1.1" id="b97da3e5-0e47-4f78-a23b-a0e68331254e"
	 xmlns="http://www.w3.org/2000/svg" xmlns:xlink="http://www.w3.org/1999/xlink" x="0px" y="0px" viewBox="0 0 891.3 745.2"
	 style="enable-background:new 0 0 891.3 745.2;" xml:space="preserve">
<style type="text/css">
	.st0{fill:#F2F2F2;}
	.st1{fill:#3F3D56;}
	.st2{fill:#FFFFFF;}
	.st3{fill:#FF4F5A;}
	.st4{fill:#2F2E41;}
	.st5{fill:#A0616A;}
	.st6{fill:#E6E6E6;}
	.st7{fill:#FFB8B8;}
</style>
<ellipse class="st0" cx="418.6" cy="727.2" rx="352" ry="18"/>
<path class="st1" d="M624.3,172.9h-4V63.4c0-35-28.4-63.4-63.4-63.4H324.8c-35,0-63.4,28.4-63.4,63.4v601c0,35,28.4,63.4,63.4,63.4
	h232.1c35,0,63.4-28.4,63.4-63.4V250.9h4L624.3,172.9z"/>
<path class="st2" d="M606.8,63.8v600.1c0,26.2-21.2,47.3-47.3,47.3H326.3c-26.2,0-47.3-21.2-47.3-47.3V63.8
	c0-26.2,21.2-47.3,47.3-47.3h28.3c-4.7,11.5,0.8,24.6,12.4,29.3c2.7,1.1,5.6,1.7,8.5,1.7h133c12.4,0,22.5-10.1,22.5-22.5
	c0-2.9-0.6-5.8-1.7-8.5h30.3C585.6,16.5,606.8,37.7,606.8,63.8z"/>
<path class="st3" d="M531.7,322.6c-1.6,0.8-3.1,1.6-4.7,2.3c-1.5,0.7-2.9,1.3-4.4,1.9c-0.6,0.2-1.1,0.4-1.7,0.6
	c-4.4,1.6-9,2.9-13.6,3.8c-2.3,0.4-4.6,0.8-7,1.1c-1.9,0.2-3.9,0.4-5.9,0.5c-1.4,0.1-2.8,0.1-4.2,0.1c-5.6,0-11.2-0.5-16.8-1.6
	c-1.4-0.3-2.9-0.6-4.3-0.9c-6.8-1.6-13.4-4.1-19.7-7.3c-0.6-0.3-1.1-0.6-1.7-0.9c-0.8-0.4-1.6-0.9-2.4-1.4c0.4-0.5,0.8-1.1,1.2-1.6
	c18.4-22.8,51.8-26.4,74.6-8c1.5,1.2,2.9,2.5,4.3,3.9c1.8,1.8,3.5,3.8,5.1,5.9C530.9,321.5,531.3,322,531.7,322.6z"/>
<circle class="st4" cx="492.1" cy="234.8" r="43.9"/>
<circle class="st5" cx="488.1" cy="250.1" r="32.7"/>
<path class="st4" d="M522.5,229.5c-7.5,5.1-16.3,7.9-25.4,7.9c3.2,2.2,6.9,3.8,10.8,4.4c-12.1,2.6-24.5,2.7-36.6,0.2
	c-2.7-0.4-5.3-1.3-7.7-2.6c-2.4-1.3-4.1-3.6-4.7-6.3c-0.8-4.6,2.8-8.8,6.5-11.6c11.5-8.6,26.3-11.5,40.2-8c4.5,1.2,9,3.1,11.9,6.7
	s3.8,9.2,1,12.9L522.5,229.5z"/>
<path class="st1" d="M490.1,152.8c-49.7,0-90,40.3-90,90c0,31.4,16.4,60.5,43.2,76.9l0.6,0.3c0.5,0.3,1,0.6,1.4,0.8
	c0.8,0.5,1.6,0.9,2.4,1.4c0.6,0.3,1.1,0.6,1.7,0.9c6.2,3.2,12.8,5.6,19.7,7.3c1.4,0.3,2.8,0.6,4.3,0.9c5.5,1,11.1,1.6,16.8,1.6
	c1.4,0,2.8,0,4.2-0.1c2-0.1,3.9-0.2,5.9-0.5c2.4-0.3,4.7-0.6,7-1.1c4.6-0.9,9.2-2.1,13.6-3.8c0.6-0.2,1.1-0.4,1.7-0.6
	c1.5-0.6,3-1.2,4.4-1.9c1.6-0.7,3.2-1.5,4.7-2.3c15.6-8.2,28.4-20.6,37-36c0-0.1,0.1-0.2,0.1-0.2c4.6-8.2,7.8-17.2,9.6-26.4
	c9.5-48.8-22.4-96.1-71.2-105.6C501.6,153.3,495.9,152.8,490.1,152.8L490.1,152.8z M567.2,285.2c-0.1,0.1-0.1,0.3-0.2,0.4
	c-8.4,15.1-21.1,27.4-36.5,35.3c-1.5,0.8-3.1,1.6-4.7,2.2c-1.3,0.6-2.6,1.1-4,1.7c-0.6,0.2-1.1,0.4-1.7,0.6
	c-3.8,1.4-7.7,2.5-11.7,3.4c-3,0.6-5.9,1.1-9,1.4c-1.9,0.2-3.7,0.3-5.6,0.4c-1.2,0-2.4,0.1-3.6,0.1c-5.4,0-10.9-0.5-16.2-1.5
	c-3.3-0.6-6.5-1.4-9.6-2.4c-4.8-1.5-9.5-3.4-14-5.7c-0.5-0.3-1-0.5-1.6-0.8c-0.7-0.4-1.5-0.8-2.2-1.2c-0.5-0.3-1.1-0.6-1.6-0.9
	c-0.3-0.2-0.6-0.4-0.9-0.6c-41.4-25.5-54.4-79.7-29-121.1c25.5-41.4,79.7-54.4,121.1-29C576.3,192.2,590,244,567.2,285.2z"/>
<path class="st4" d="M469.9,191.5c-0.5-5-6.6-8-11.3-6.5s-7.9,6.3-8.8,11.2c-0.9,4.2-0.1,8.5,2.2,12.1c2.4,3.5,6.8,5.6,11,4.7
	c4.7-1,8-5.6,8.9-10.3s0-9.6-0.9-14.3L469.9,191.5z"/>
<path class="st4" d="M536.9,198.6c-0.5-5-6.6-8-11.3-6.5s-7.9,6.3-8.8,11.2c-0.9,4.2-0.1,8.5,2.2,12.1c2.4,3.5,6.8,5.6,11,4.7
	c4.7-1,8-5.6,8.9-10.3s0-9.6-0.9-14.3L536.9,198.6z"/>
<path class="st2" d="M334.6,278.7c-1.3,0-2.5-0.5-3.3-1.5l-49.6-54.1c-1.1-1.2-2.7-1.9-4.4-1.9H15c-8.3,0-15-6.7-15-15v-94.6
	c0-8.3,6.7-15,15-15h339.7c8.3,0,15,6.7,15,15v94.6c0,8.3-6.7,15-15,15h-9.6c-3.3,0-6,2.7-6,6v47c0,1.9-1.1,3.5-2.9,4.2
	C335.7,278.6,335.1,278.7,334.6,278.7z"/>
<path class="st1" d="M334.6,278.7c-1.3,0-2.5-0.5-3.3-1.5l-49.6-54.1c-1.1-1.2-2.7-1.9-4.4-1.9H15c-8.3,0-15-6.7-15-15v-94.6
	c0-8.3,6.7-15,15-15h339.7c8.3,0,15,6.7,15,15v94.6c0,8.3-6.7,15-15,15h-9.6c-3.3,0-6,2.7-6,6v47c0,1.9-1.1,3.5-2.9,4.2
	C335.7,278.6,335.1,278.7,334.6,278.7z M15,98.6c-7.2,0-13,5.8-13,13v94.6c0,7.2,5.8,13,13,13h262.2c2.2,0,4.4,0.9,5.9,2.6
	l49.6,54.1c0.9,1,2.5,1.1,3.5,0.2c0.5-0.5,0.8-1.1,0.8-1.8v-47c0-4.4,3.6-8,8-8h9.6c7.2,0,13-5.8,13-13v-94.6c0-7.2-5.8-13-13-13H15
	z"/>
<circle class="st3" cx="36.8" cy="125.2" r="13.1"/>
<path class="st6" d="M339.4,197.9H30.3c-3.9,0-7-3.1-7-7c0-3.9,3.1-7,7-7c0,0,0,0,0,0h309.1c3.9,0,7,3.1,7,7
	C346.4,194.7,343.3,197.9,339.4,197.9z"/>
<path class="st6" d="M238.7,168.1H30.3c-3.9,0-7-3.1-7-7c0-3.9,3.1-7,7-7c0,0,0,0,0,0h208.4c3.9,0,7,3.1,7,7
	C245.7,165,242.6,168.1,238.7,168.1z"/>
<path class="st2" d="M555.1,599.4c-1.7-0.7-2.9-2.3-2.9-4.2v-47c0-3.3-2.7-6-6-6h-9.6c-8.3,0-15-6.7-15-15v-94.6c0-8.3,6.7-15,15-15
	h339.7c8.3,0,15,6.7,15,15v94.6c0,8.3-6.7,15-15,15H614.1c-1.7,0-3.3,0.7-4.4,1.9L560,598.3c-0.8,0.9-2,1.5-3.3,1.5
	C556.1,599.7,555.6,599.6,555.1,599.4z"/>
<path class="st1" d="M555.1,599.4c-1.7-0.7-2.9-2.3-2.9-4.2v-47c0-3.3-2.7-6-6-6h-9.6c-8.3,0-15-6.7-15-15v-94.6c0-8.3,6.7-15,15-15
	h339.7c8.3,0,15,6.7,15,15v94.6c0,8.3-6.7,15-15,15H614.1c-1.7,0-3.3,0.7-4.4,1.9L560,598.3c-0.8,0.9-2,1.5-3.3,1.5
	C556.1,599.7,555.6,599.6,555.1,599.4z M536.6,419.6c-7.2,0-13,5.8-13,13v94.6c0,7.2,5.8,13,13,13h9.6c4.4,0,8,3.6,8,8v47
	c0,1.4,1.1,2.5,2.5,2.5c0.7,0,1.4-0.3,1.8-0.8l49.6-54.1c1.5-1.7,3.7-2.6,5.9-2.6h262.2c7.2,0,13-5.8,13-13v-94.6
	c0-7.2-5.8-13-13-13H536.6z"/>
<path class="st3" d="M449.2,628.7c-28.4,18.2-64.7,18.8-93.7,1.5c2.5-4.7,5.7-8.9,9.4-12.7c20.8-20.9,54.6-21,75.6-0.2
	c3.2,3.2,6,6.8,8.3,10.7C448.9,628.3,449.1,628.5,449.2,628.7z"/>
<circle class="st4" cx="398.4" cy="536.7" r="44.2"/>
<circle class="st7" cx="402.5" cy="552.1" r="32.9"/>
<path class="st4" d="M367.9,531.4c7.5,5.2,16.4,7.9,25.6,7.9c-3.3,2.3-7,3.8-10.9,4.5c12.1,2.6,24.7,2.7,36.9,0.2
	c2.7-0.4,5.3-1.3,7.7-2.6c2.4-1.4,4.2-3.7,4.8-6.4c0.8-4.6-2.8-8.8-6.5-11.6c-11.6-8.6-26.5-11.6-40.5-8.1c-4.5,1.2-9.1,3.1-12,6.8
	s-3.8,9.2-1,13L367.9,531.4z"/>
<path class="st1" d="M401.1,643.8c-49.7,0-90-40.3-89.9-90s40.3-90,90-89.9s90,40.3,89.9,90c0,30.7-15.6,59.2-41.4,75.7
	C435.2,638.8,418.4,643.8,401.1,643.8z M401.1,465.8c-48.6,0-88,39.4-88,88c0,48.6,39.4,88,88,88c48.6,0,88-39.4,88-88c0,0,0,0,0,0
	C489.1,505.2,449.7,465.8,401.1,465.8z"/>
<circle class="st3" cx="563.8" cy="445.2" r="13.1"/>
<path class="st6" d="M866.4,517.9H557.3c-3.9,0-7-3.1-7-7c0-3.9,3.1-7,7-7c0,0,0,0,0,0h309.1c3.9,0,7,3.1,7,7
	C873.4,514.7,870.3,517.9,866.4,517.9z"/>
<path class="st6" d="M765.7,488.1H557.3c-3.9,0-7-3.1-7-7c0-3.9,3.1-7,7-7c0,0,0,0,0,0h208.4c3.9,0,7,3.1,7,7
	C772.7,485,769.6,488.1,765.7,488.1z"/>
<ellipse class="st0" cx="554.6" cy="605.7" rx="24.5" ry="2.7"/>
<ellipse class="st0" cx="335.6" cy="285.7" rx="24.5" ry="2.7"/>
</svg>
