<?xml version="1.0" encoding="utf-8"?>
<!-- Generator: Adobe Illustrator 24.3.0, SVG Export Plug-In . SVG Version: 6.00 Build 0)  -->
<svg version="1.1" id="bf2b12fd-98ef-4df9-abe4-52340225686d"
	 xmlns="http://www.w3.org/2000/svg" xmlns:xlink="http://www.w3.org/1999/xlink" x="0px" y="0px" viewBox="0 0 1143 663.7"
	 style="enable-background:new 0 0 1143 663.7;" xml:space="preserve">
<style type="text/css">
	.st0{opacity:0.1;}
	.st1{fill:#3F3D56;}
	.st2{fill:#6C63FF;}
	.st3{opacity:0.1;enable-background:new    ;}
	.st4{opacity:0.15;enable-background:new    ;}
	.st5{fill:none;stroke:#3F3D56;stroke-width:4;stroke-miterlimit:10;}
	.st6{fill:#FF4F5A;}
	.st7{fill:url(#SVGID_1_);}
	.st8{fill:#2F2E41;}
	.st9{fill:#FBBEBE;}
	.st10{fill:#E8E8F0;}
	.st11{fill:#F86D70;}
</style>
<g class="st0">
	<ellipse class="st1" cx="840.4" cy="625" rx="22.1" ry="28.9"/>
	<path class="st1" d="M857.8,501.3c3.1-5.4,4.7-11.5,4.7-17.7c0-16-9.9-28.9-22.1-28.9s-22.1,12.9-22.1,28.9
		c-0.1,6.2,1.5,12.3,4.6,17.7c-6.1,11-6.1,24.4,0,35.3c-6.1,11-6.1,24.4,0,35.3c-3.1,5.4-4.7,11.5-4.6,17.7c0,16,9.9,28.9,22.1,28.9
		s22.1-12.9,22.1-28.9c0.1-6.2-1.5-12.3-4.6-17.7c6.1-11,6.1-24.4,0-35.3C864,525.7,864,512.3,857.8,501.3L857.8,501.3z"/>
	<ellipse class="st1" cx="840.4" cy="448.4" rx="22.1" ry="28.9"/>
	<ellipse class="st1" cx="840.4" cy="413" rx="22.1" ry="28.9"/>
	<path class="st2" d="M923,171.2c3-3.8,5.8-7.9,8.2-12.1l-58-9.5L936,150c12.2-26.5,12.9-56.8,2-83.8l-84.2,43.7l77.7-57.1
		c-29.3-50.6-94-67.8-144.6-38.5c-50.6,29.3-67.8,94-38.5,144.6c2.5,4.3,5.3,8.4,8.3,12.3c-4.7,6-8.7,12.4-12.1,19.3l75.3,39.1
		l-80.3-27c-11.5,33.9-5.1,71.2,17,99.3c-36.1,45.9-28.2,112.4,17.7,148.6c45.9,36.1,112.4,28.2,148.6-17.7
		c30.2-38.4,30.2-92.4,0-130.8C953.2,263.6,953.2,209.5,923,171.2L923,171.2z"/>
	<path class="st3" d="M734.1,236.6c0,23.7,7.9,46.8,22.6,65.4c-36.1,45.9-28.2,112.4,17.7,148.6c45.9,36.1,112.4,28.2,148.6-17.7
		c30.2-38.4,30.2-92.4,0-130.8C937.2,284,734.1,224.7,734.1,236.6z"/>
</g>
<g class="st0">
	<ellipse class="st1" cx="220.8" cy="605.4" rx="13.4" ry="17.6"/>
	<path class="st1" d="M231.5,530.1c1.9-3.3,2.8-7,2.8-10.8c0-9.7-6-17.6-13.4-17.6s-13.4,7.9-13.4,17.6c0,3.8,0.9,7.5,2.8,10.8
		c-3.7,6.7-3.7,14.8,0,21.5c-3.7,6.7-3.7,14.8,0,21.5c-1.9,3.3-2.8,7-2.8,10.8c0,9.7,6,17.6,13.4,17.6c7.4,0,13.4-7.9,13.4-17.6
		c0-3.8-0.9-7.5-2.8-10.8c3.7-6.7,3.7-14.8,0-21.5C235.2,545,235.2,536.8,231.5,530.1L231.5,530.1z"/>
	<ellipse class="st1" cx="220.8" cy="497.9" rx="13.4" ry="17.6"/>
	<ellipse class="st1" cx="220.8" cy="476.4" rx="13.4" ry="17.6"/>
	<path class="st2" d="M170.5,329.1c-1.8-2.3-3.5-4.8-5-7.4l35.3-5.8l-38.2,0.3c-7.4-16.1-7.8-34.6-1.2-51l51.2,26.6l-47.3-34.8
		c17.8-30.8,57.3-41.2,88-23.4c30.8,17.8,41.2,57.3,23.4,88c-1.5,2.6-3.2,5.1-5,7.4c2.9,3.6,5.3,7.6,7.3,11.7l-45.9,23.8l48.9-16.4
		c7,20.6,3.1,43.4-10.4,60.5c22,28,17.1,68.4-10.8,90.4c-28,22-68.4,17.1-90.4-10.8c-18.4-23.4-18.4-56.3,0-79.6
		C152.1,385.4,152.1,352.5,170.5,329.1L170.5,329.1z"/>
	<path class="st3" d="M285.5,369c0,14.4-4.8,28.5-13.8,39.8c22,28,17.1,68.4-10.8,90.4c-28,22-68.4,17.1-90.4-10.8
		c-18.4-23.4-18.4-56.3,0-79.6C161.9,397.9,285.5,361.7,285.5,369z"/>
</g>
<g class="st0">
	<ellipse class="st1" cx="523.8" cy="614.8" rx="18" ry="23.5"/>
	<path class="st1" d="M538,514c2.5-4.4,3.8-9.4,3.8-14.4c0-13-8-23.5-18-23.5s-18,10.5-18,23.5c-0.1,5,1.2,10,3.8,14.4
		c-5,8.9-5,19.8,0,28.8c-5,8.9-5,19.8,0,28.8c-2.5,4.4-3.8,9.4-3.8,14.4c0,13,8.1,23.5,18,23.5s18-10.5,18-23.5
		c0.1-5-1.2-10-3.8-14.4c5-8.9,5-19.8,0-28.8C543.1,533.9,543.1,523,538,514z"/>
	<ellipse class="st1" cx="523.8" cy="470.9" rx="18" ry="23.5"/>
	<ellipse class="st1" cx="523.8" cy="442.1" rx="18" ry="23.5"/>
	<path class="st2" d="M456.5,245.1c-2.5-3.1-4.7-6.4-6.7-9.9l47.3-7.8l-51.1,0.4c-9.9-21.6-10.5-46.3-1.6-68.3l68.6,35.6l-63.3-46.5
		c23.7-41.3,76.4-55.5,117.7-31.7s55.5,76.4,31.7,117.7c-2.1,3.7-4.5,7.2-7.1,10.5c3.8,4.9,7.1,10.1,9.8,15.7l-61.4,31.9l65.4-22
		c9.3,27.6,4.1,58-13.9,80.9c29.4,37.4,22.9,91.6-14.5,121s-91.6,22.9-121-14.5c-24.6-31.3-24.6-75.3,0-106.6
		C431.9,320.3,431.9,276.3,456.5,245.1L456.5,245.1z"/>
	<path class="st3" d="M610.4,298.3c0,19.3-6.5,38.1-18.4,53.3c29.4,37.4,22.9,91.6-14.5,121c-37.4,29.4-91.6,22.9-121-14.5
		c-24.6-31.3-24.6-75.3,0-106.6C444.9,337,610.4,288.7,610.4,298.3z"/>
</g>
<path class="st1" d="M1143,636.2c0,6.9-50.2,13.2-133.2,18c-15.1,0.9-31.3,1.7-48.4,2.5c-14.8,0.7-30.4,1.3-46.6,1.9
	c-15.7,0.6-32.1,1.1-49,1.6c-53.5,1.5-112.7,2.6-175.6,3.2c-15.3,0.1-30.7,0.2-46.4,0.3c-16.3,0.1-32.8,0.1-49.5,0.1
	c-303.1,0-548.9-12.3-548.9-27.5s245.7-27.5,548.9-27.5c130.5,0,250.4,2.3,344.6,6.1l10.3,0.4h0.1
	C1067.7,620.3,1143,627.9,1143,636.2z"/>
<path class="st4" d="M1143,636.2c0,6.9-50.2,13.2-133.2,18c-15.1,0.9-31.3,1.7-48.4,2.5c-14.8,0.7-30.4,1.3-46.6,1.9
	c-15.7,0.6-32.1,1.1-49,1.6c-53.5,1.5-112.7,2.6-175.6,3.2c-15.3,0.1-30.7,0.2-46.4,0.3c-16.3,0.1-32.8,0.1-49.5,0.1
	c-303.1,0-548.9-12.3-548.9-27.5s245.7-27.5,548.9-27.5c130.5,0,250.4,2.3,344.6,6.1l10.3,0.4h0.1
	C1067.7,620.3,1143,627.9,1143,636.2z"/>
<path class="st1" d="M1097.8,631.4c0,5.7-50.2,11-133.2,15c-15.1,0.7-31.3,1.4-48.4,2.1c-14.8,0.6-30.4,1.1-46.6,1.6
	c-15.7,0.5-32.1,0.9-49,1.3c-53.5,1.3-112.7,2.2-175.6,2.7c-15.2,0.1-30.7,0.2-46.4,0.3c-16.3,0.1-32.8,0.1-49.5,0.1
	C245.7,654.4,0,644.1,0,631.4s245.7-23,548.9-23c130.5,0,250.3,1.9,344.5,5.1l10.3,0.3h0.1C1022.5,618.1,1097.8,624.3,1097.8,631.4z
	"/>
<path class="st1" d="M141.8,422.5L128,380.3l330-3.6l13.5,41.8L141.8,422.5z"/>
<path class="st4" d="M141.8,422.5L128,380.3l330-3.6l13.5,41.8L141.8,422.5z"/>
<path class="st1" d="M119.8,422.5L106,380.3l330-3.6l13.5,41.8L119.8,422.5z"/>
<path class="st1" d="M683.1,357.6c-34.1,0-61-13.5-80.7-40.6c-19.7-27.1-29.5-59.9-29.5-98.4c0-38.8,9.5-71.5,28.5-98.2
	c19-26.7,45.8-40,80.5-40c36.7,0,64.4,14.1,83,42.2s27.9,60.7,27.9,97.7c0,36.7-9.6,68.8-28.9,96.3
	C744.7,343.9,717.7,357.6,683.1,357.6z M684.1,327.2c22.4,0,39.2-9.8,50.3-29.4c11.1-19.6,16.7-44.2,16.7-74
	c0-33.1-5.7-60.3-17-81.4c-11.4-21.1-28.8-31.7-52.3-31.7c-44.7,0-67,35.5-67,106.4C614.8,290.5,637.9,327.2,684.1,327.2
	L684.1,327.2z M695.3,618.9H646L969.1,85.7h48.4L695.3,618.9z M981.2,624.4c-34.6,0-61.6-13.7-81-41c-19.4-27.3-29.1-60.2-29.2-98.5
	c0-38.5,9.4-71.2,28.3-97.8c18.9-26.7,45.8-40,80.7-40c36.5,0,63.9,14.1,82.4,42.2c18.5,28.1,27.7,60.7,27.7,97.6
	c0,36.5-9.6,68.5-28.7,96.1C1042.3,610.6,1015.5,624.4,981.2,624.4L981.2,624.4z M981.8,593.2c22.3,0,39-9.6,50.1-28.8
	c11-19.2,16.6-43.8,16.6-73.7c0-32-5.6-58.8-16.8-80.5s-28.6-32.5-52.2-32.6C934.5,377.5,912,413,912,484
	C912,556.8,935.2,593.2,981.8,593.2L981.8,593.2z"/>
<path class="st1" d="M683.1,357.6c-34.1,0-61-13.5-80.7-40.6c-19.7-27.1-29.5-59.9-29.5-98.4c0-38.8,9.5-71.5,28.5-98.2
	c19-26.7,45.8-40,80.5-40c36.7,0,64.4,14.1,83,42.2s27.9,60.7,27.9,97.7c0,36.7-9.6,68.8-28.9,96.3
	C744.7,343.9,717.7,357.6,683.1,357.6z M684.1,327.2c22.4,0,39.2-9.8,50.3-29.4c11.1-19.6,16.7-44.2,16.7-74
	c0-33.1-5.7-60.3-17-81.4c-11.4-21.1-28.8-31.7-52.3-31.7c-44.7,0-67,35.5-67,106.4C614.8,290.5,637.9,327.2,684.1,327.2
	L684.1,327.2z M695.3,618.9H646L969.1,85.7h48.4L695.3,618.9z M981.2,624.4c-34.6,0-61.6-13.7-81-41c-19.4-27.3-29.1-60.2-29.2-98.5
	c0-38.5,9.4-71.2,28.3-97.8c18.9-26.7,45.8-40,80.7-40c36.5,0,63.9,14.1,82.4,42.2c18.5,28.1,27.7,60.7,27.7,97.6
	c0,36.5-9.6,68.5-28.7,96.1C1042.3,610.6,1015.5,624.4,981.2,624.4L981.2,624.4z M981.8,593.2c22.3,0,39-9.6,50.1-28.8
	c11-19.2,16.6-43.8,16.6-73.7c0-32-5.6-58.8-16.8-80.5s-28.6-32.5-52.2-32.6C934.5,377.5,912,413,912,484
	C912,556.8,935.2,593.2,981.8,593.2L981.8,593.2z"/>
<path class="st4" d="M683.1,357.6c-34.1,0-61-13.5-80.7-40.6c-19.7-27.1-29.5-59.9-29.5-98.4c0-38.8,9.5-71.5,28.5-98.2
	c19-26.7,45.8-40,80.5-40c36.7,0,64.4,14.1,83,42.2s27.9,60.7,27.9,97.7c0,36.7-9.6,68.8-28.9,96.3
	C744.7,343.9,717.7,357.6,683.1,357.6z M684.1,327.2c22.4,0,39.2-9.8,50.3-29.4c11.1-19.6,16.7-44.2,16.7-74
	c0-33.1-5.7-60.3-17-81.4c-11.4-21.1-28.8-31.7-52.3-31.7c-44.7,0-67,35.5-67,106.4C614.8,290.5,637.9,327.2,684.1,327.2
	L684.1,327.2z M695.3,618.9H646L969.1,85.7h48.4L695.3,618.9z M981.2,624.4c-34.6,0-61.6-13.7-81-41c-19.4-27.3-29.1-60.2-29.2-98.5
	c0-38.5,9.4-71.2,28.3-97.8c18.9-26.7,45.8-40,80.7-40c36.5,0,63.9,14.1,82.4,42.2c18.5,28.1,27.7,60.7,27.7,97.6
	c0,36.5-9.6,68.5-28.7,96.1C1042.3,610.6,1015.5,624.4,981.2,624.4L981.2,624.4z M981.8,593.2c22.3,0,39-9.6,50.1-28.8
	c11-19.2,16.6-43.8,16.6-73.7c0-32-5.6-58.8-16.8-80.5s-28.6-32.5-52.2-32.6C934.5,377.5,912,413,912,484
	C912,556.8,935.2,593.2,981.8,593.2L981.8,593.2z"/>
<path class="st1" d="M652.1,357.6c-34.1,0-61-13.5-80.7-40.6c-19.7-27.1-29.5-59.9-29.5-98.4c0-38.8,9.5-71.5,28.5-98.2
	c19-26.7,45.8-40,80.5-40c36.7,0,64.4,14.1,83,42.2s27.9,60.7,27.9,97.7c0,36.7-9.6,68.8-28.9,96.3
	C713.7,343.9,686.7,357.6,652.1,357.6z M653.1,327.2c22.4,0,39.2-9.8,50.3-29.4c11.1-19.6,16.7-44.2,16.7-74
	c0-33.1-5.7-60.3-17-81.4c-11.4-21.1-28.8-31.7-52.3-31.7c-44.7,0-67,35.5-67,106.4C583.8,290.5,606.9,327.2,653.1,327.2
	L653.1,327.2z M664.3,618.9H615L938.1,85.7h48.4L664.3,618.9z M950.2,624.4c-34.6,0-61.6-13.7-81-41c-19.4-27.3-29.1-60.2-29.2-98.5
	c0-38.5,9.4-71.2,28.3-97.8c18.9-26.7,45.8-40,80.7-40c36.5,0,63.9,14.1,82.4,42.2c18.5,28.1,27.7,60.7,27.7,97.6
	c0,36.5-9.6,68.5-28.7,96.1C1011.3,610.6,984.5,624.4,950.2,624.4L950.2,624.4z M950.8,593.2c22.3,0,39-9.6,50.1-28.8
	c11-19.2,16.6-43.8,16.6-73.7c0-32-5.6-58.8-16.8-80.5c-11.2-21.7-28.6-32.5-52.2-32.6C903.5,377.5,881,413,881,484
	C881,556.8,904.2,593.2,950.8,593.2L950.8,593.2z"/>
<path class="st5" d="M760.1,632.3c4.1-7.6-0.6-17-5.9-23.8s-11.9-13.9-11.8-22.6c0.2-12.5,13.4-19.8,24-26.5
	c7.9-4.9,15.1-10.7,21.6-17.3c2.7-2.5,5-5.6,6.6-8.9c2.2-4.9,2.1-10.4,2-15.8c-0.5-17.8-1.3-35.6-2.6-53.4"/>
<path class="st6" d="M814,463.1c-0.3-6.6-4-12.6-9.7-15.9l-4.4,8.6l0.1-10.4c-2.1-0.6-4.2-0.9-6.4-0.8c-10.7,0.5-19,9.6-18.5,20.3
	s9.6,19,20.3,18.5C806.2,483,814.5,473.9,814,463.1z"/>
<path class="st6" d="M779.3,594.9c-4.9,9.6-16.6,13.3-26.2,8.4s-13.3-16.6-8.4-26.2s16.6-13.3,26.2-8.4c4.3,2.2,7.6,6,9.3,10.5
	l-12.2,9.9l13.4-3.1C781.5,589.1,780.7,592.1,779.3,594.9z"/>
<path class="st6" d="M769.7,557c-10.7,0.5-19.8-7.8-20.3-18.5c0,0,0,0,0,0c-0.2-3,0.4-6.1,1.7-8.9c2.4-5.3,6.9-9.2,12.5-10.8l-0.1,8
	l4.4-8.7l0,0c10.7-0.5,19.8,7.8,20.4,18.5C788.7,547.4,780.4,556.5,769.7,557L769.7,557L769.7,557z"/>
<path class="st6" d="M817,525.6c-10.7,0.7-20-7.4-20.7-18.1c-0.7-10.7,7.4-20,18.1-20.7c0.3,0,0.5,0,0.8,0c3.6-0.2,7.2,0.7,10.4,2.5
	l-3.4,9.4l7.1-6.8c3.8,3.5,6.1,8.3,6.3,13.4c0.1,1.8-0.1,3.6-0.5,5.4C833,519.1,825.6,525.2,817,525.6z"/>
<path class="st3" d="M811.4,468.3c-4.5,0.5-8.8,1.9-13.4,2.2s-9.5-0.8-12.3-4.3c-1.5-1.9-2.3-4.3-3.6-6.3c-1.2-1.9-2.9-3.5-4.9-4.6
	c-4.9,9.6-1,21.3,8.6,26.2s21.3,1,26.2-8.6c0.7-1.5,1.3-3.1,1.7-4.7C812.9,468.2,812.1,468.2,811.4,468.3z"/>
<path class="st3" d="M817,525.6c-10.7,0.5-19.9-7.8-20.3-18.6c-0.1-3.2,0.5-6.3,1.8-9.2c1.5,1,2.9,2.4,3.9,3.9
	c1.4,2.1,2.2,4.5,3.9,6.4c3,3.6,8.2,4.7,12.9,4.5s9.2-1.5,13.9-2c0.7-0.1,1.3-0.1,2-0.1C833,519.1,825.7,525.2,817,525.6z"/>
<path class="st3" d="M769.7,557c-10.7,0.5-19.8-7.8-20.3-18.5c0,0,0,0,0,0c-0.2-3,0.4-6.1,1.7-8.9c1.6,1.1,3,2.4,4.1,4
	c1.5,2.1,2.5,4.6,4.2,6.6c3.3,3.7,8.8,4.9,13.8,4.8s9.5-1.3,14.2-1.7C785,551.2,777.9,556.7,769.7,557z"/>
<path class="st3" d="M779.3,594.9c-4.9,9.6-16.6,13.4-26.2,8.5c-8.9-4.5-12.9-15.1-9.3-24.4c1.6,1.1,3,2.3,4.3,3.8
	c1.8,2.3,3.1,4.8,5.2,6.9c4,3.9,10.4,5.5,16.1,5.7C772.7,595.4,776,595.2,779.3,594.9z"/>
<path class="st5" d="M1061.1,631.3c4.1-7.6-0.6-17-5.9-23.8s-11.9-13.9-11.8-22.6c0.2-12.5,13.4-19.8,24-26.5
	c7.9-4.9,15.1-10.7,21.6-17.3c2.7-2.5,5-5.6,6.6-8.9c2.2-4.9,2.1-10.4,2-15.8c-0.5-17.8-1.3-35.6-2.6-53.4"/>
<path class="st6" d="M1115,462.1c-0.3-6.6-4-12.6-9.7-15.9l-4.4,8.6l0.1-10.4c-2.1-0.6-4.2-0.9-6.4-0.8c-10.7,0.5-19,9.6-18.5,20.3
	c0.5,10.7,9.6,19,20.3,18.5C1107.2,482,1115.5,472.9,1115,462.1z"/>
<path class="st6" d="M1080.3,593.9c-4.9,9.6-16.6,13.3-26.2,8.4c-9.6-4.9-13.3-16.6-8.4-26.2s16.6-13.3,26.2-8.4
	c4.3,2.2,7.6,6,9.3,10.5l-12.2,9.9l13.4-3.1C1082.5,588.1,1081.7,591.1,1080.3,593.9z"/>
<path class="st6" d="M1070.7,556c-10.7,0.5-19.8-7.8-20.3-18.5c0,0,0,0,0,0c-0.2-3,0.4-6.1,1.7-8.9c2.4-5.3,6.9-9.2,12.5-10.8
	l-0.1,8l4.4-8.7h0.1c10.7-0.5,19.8,7.8,20.3,18.5S1081.4,555.5,1070.7,556L1070.7,556L1070.7,556z"/>
<path class="st6" d="M1117.9,524.6c-10.7,0.7-20-7.4-20.7-18.1s7.4-20,18.1-20.7c0.3,0,0.5,0,0.8,0c3.6-0.2,7.2,0.7,10.4,2.5
	l-3.4,9.4l7.1-6.8c3.8,3.5,6.1,8.3,6.3,13.4c0.1,1.8-0.1,3.6-0.5,5.4C1134,518.1,1126.6,524.2,1117.9,524.6z"/>
<path class="st3" d="M1112.4,467.3c-4.5,0.5-8.8,1.9-13.4,2.2s-9.5-0.8-12.3-4.3c-1.5-1.9-2.3-4.3-3.6-6.3c-1.2-1.9-2.9-3.5-4.9-4.6
	c-4.9,9.6-1,21.3,8.6,26.2c9.6,4.9,21.3,1,26.2-8.6c0.8-1.5,1.3-3.1,1.7-4.7C1113.9,467.2,1113.1,467.2,1112.4,467.3z"/>
<path class="st3" d="M1117.9,524.6c-10.7,0.5-19.9-7.8-20.3-18.6c-0.1-3.2,0.5-6.3,1.8-9.2c1.5,1,2.9,2.4,3.9,3.9
	c1.4,2.1,2.2,4.5,3.9,6.4c3,3.6,8.2,4.7,12.9,4.5s9.2-1.5,13.9-2c0.7-0.1,1.3-0.1,2-0.1C1134,518.1,1126.7,524.2,1117.9,524.6z"/>
<path class="st3" d="M1070.7,556c-10.7,0.5-19.8-7.8-20.3-18.5c0,0,0,0,0,0c-0.2-3,0.4-6.1,1.7-8.9c1.6,1.1,3,2.4,4.1,4
	c1.5,2.1,2.5,4.6,4.2,6.6c3.3,3.7,8.8,4.9,13.8,4.8c4.8-0.1,9.5-1.3,14.2-1.7C1086,550.2,1078.9,555.7,1070.7,556z"/>
<path class="st3" d="M1080.3,593.9c-4.9,9.6-16.6,13.4-26.2,8.5c-8.9-4.5-12.9-15.1-9.3-24.4c1.6,1.1,3,2.3,4.3,3.8
	c1.8,2.3,3.1,4.8,5.2,6.9c4,3.9,10.4,5.5,16.1,5.7C1073.7,594.4,1077,594.2,1080.3,593.9z"/>
<path class="st5" d="M109.9,618.3c-4.1-7.6,0.6-17,5.9-23.8s11.9-13.9,11.8-22.6c-0.2-12.5-13.4-19.8-24-26.5
	c-7.9-4.9-15.1-10.7-21.6-17.3c-2.7-2.5-5-5.6-6.6-8.9c-2.2-4.9-2.1-10.4-2-15.8c0.5-17.8,1.3-35.6,2.6-53.4"/>
<path class="st6" d="M56,449.1c0.3-6.6,4-12.6,9.7-15.9l4.4,8.6l-0.1-10.4c2.1-0.6,4.2-0.9,6.4-0.8c10.7,0.5,19,9.6,18.5,20.3
	c-0.5,10.7-9.6,19-20.3,18.5C63.8,469,55.5,459.9,56,449.1z"/>
<path class="st6" d="M90.7,580.9c4.9,9.6,16.6,13.3,26.2,8.4c9.6-4.9,13.3-16.6,8.4-26.2s-16.6-13.3-26.2-8.4
	c-4.3,2.2-7.6,6-9.3,10.5l12.2,9.9L88.5,572C88.5,575.1,89.3,578.1,90.7,580.9z"/>
<path class="st6" d="M100.3,543c10.7,0.5,19.8-7.8,20.3-18.5c0,0,0,0,0,0c0.2-3-0.4-6.1-1.7-8.9c-2.4-5.3-6.9-9.2-12.5-10.8l0.1,8
	l-4.4-8.7l0,0c-10.7-0.5-19.8,7.8-20.4,18.5C81.3,533.4,89.6,542.5,100.3,543L100.3,543z"/>
<path class="st6" d="M53.1,511.6c10.7,0.7,20-7.4,20.7-18.1c0.7-10.7-7.4-20-18.1-20.7c-0.3,0-0.5,0-0.8,0
	c-3.6-0.2-7.2,0.7-10.4,2.5l3.4,9.4l-7.1-6.8c-3.8,3.5-6.1,8.3-6.3,13.4c-0.1,1.8,0.1,3.6,0.5,5.4C37,505.1,44.4,511.2,53.1,511.6z"
	/>
<path class="st3" d="M58.6,454.3c4.5,0.5,8.8,1.9,13.4,2.2s9.5-0.8,12.3-4.3c1.5-1.9,2.3-4.3,3.6-6.3c1.2-1.9,2.9-3.5,4.9-4.6
	c4.9,9.6,1,21.3-8.6,26.2s-21.3,1-26.2-8.6c-0.7-1.5-1.3-3.1-1.7-4.7C57.1,454.2,57.9,454.2,58.6,454.3z"/>
<path class="st3" d="M53.1,511.6c10.7,0.5,19.9-7.8,20.3-18.6c0.1-3.2-0.5-6.3-1.8-9.2c-1.5,1-2.9,2.4-3.9,3.9
	c-1.4,2.1-2.2,4.5-3.9,6.4c-3,3.6-8.2,4.7-12.9,4.5s-9.2-1.5-13.9-2c-0.7-0.1-1.3-0.1-2-0.1C37,505.1,44.3,511.2,53.1,511.6z"/>
<path class="st3" d="M100.3,543c10.7,0.5,19.8-7.8,20.3-18.5c0,0,0,0,0,0c0.2-3-0.4-6.1-1.7-8.9c-1.6,1.1-3,2.4-4.1,4
	c-1.5,2.1-2.5,4.6-4.2,6.6c-3.3,3.7-8.8,4.9-13.8,4.8c-4.8-0.1-9.5-1.3-14.2-1.7C85,537.2,92.1,542.7,100.3,543z"/>
<path class="st3" d="M90.7,580.9c4.9,9.6,16.6,13.4,26.2,8.5c8.9-4.5,12.9-15.1,9.3-24.4c-1.6,1.1-3,2.3-4.3,3.8
	c-1.9,2.3-3.1,4.8-5.2,6.9c-4,3.9-10.4,5.5-16.1,5.7C97.3,581.4,94,581.2,90.7,580.9z"/>
<linearGradient id="SVGID_1_" gradientUnits="userSpaceOnUse" x1="595.9835" y1="-91.7757" x2="595.9835" y2="67.8643" gradientTransform="matrix(1 0 0 -1 -28.5 547.86)">
	<stop  offset="0" style="stop-color:#808080;stop-opacity:0.25"/>
	<stop  offset="0.54" style="stop-color:#808080;stop-opacity:0.12"/>
	<stop  offset="1" style="stop-color:#808080;stop-opacity:0.1"/>
</linearGradient>
<path class="st7" d="M673.5,524.6c0-4.9-2.3-9.6-6.2-12.5c-0.2-9.2-6.8-16.7-15.2-17.8c-1.3-6.3-5.9-11.5-12.1-13.5l0,0
	c-0.7-0.2-1.5-0.4-2.2-0.5h-0.2l-0.4,0h-0.3h-0.3h-0.4h-0.3h-0.7c-8.6,0-15.7,6.6-17.2,15.2c-5.5-1.3-10.6,0.4-11.5,3.9
	c-0.2,0.9-0.2,1.9,0.2,2.8c0.9,2.7,4,5.3,8.2,6.6l0.5,0.2c0.3,0.1,0.5,0.1,0.8,0.2h0.2l0,0c-3.2,6.8-0.5,14.8,6.1,18.3
	c-0.1,0.1-0.2,0.1-0.4,0.2c-0.5,0.5-0.9,1-1.2,1.7c-1,1.8-1.8,3.6-2.3,5.6c-0.4,1.7-0.5,3.4-1,5.1c-0.9,3-3.2,5.6-3.5,8.8
	c-0.1,1.4,0.1,3.1-0.9,4.1c-0.3,0.2-0.5,0.4-0.8,0.6c-0.7,0.5-1.3,1.1-1.8,1.8c-0.3,0.6-0.7,1.2-1.2,1.6c-0.9,0.7-2.4,0.6-2.9,1.7
	s0.7,2.3,0.4,3.5c-0.2,0.9-1.2,1.4-2,2c-0.8,0.9-1.4,2-1.7,3.2c-3,0.6-6.2-0.2-8.5-2.2c0.4,1,0.7,2.1,0.9,3.2
	c-1.2-1.3-3.2-1.6-4.6-2.3c-1.9-0.9-3.5-2.1-4.9-3.6l2.6-0.4L577,544.4l-3.4-0.7l3.1,5.9c-0.5,0.2-0.9,0.7-1,1.3
	c-0.2,0.7-0.2,1.3-0.1,2c0.2,1.6,0.4,3.1,0.8,4.7l0.9,4.1c0.1,0.4,0.2,0.8,0.3,1.2c-1.2,0-2.3,0.1-3.4,0.4c-2.3-0.9-4.7-1.4-7.1-1.7
	c-0.5-0.1-1.1-0.1-1.6,0.1c-0.6,0.3-1.1,0.7-1.5,1.2c-2,2.3-3.8,4.8-5.3,7.5c-6.2,10.8-14.5,20.3-22.3,30.1
	c-5.4,2.2-10.8,4.3-16.2,6.3l-11.7,4.5c-2.3,0.9-4.8,1.8-7.2,1.6c-1.1-0.1-2.5-0.2-3.1,0.7c-0.3,0.5-0.5,1-0.7,1.5
	c-0.4,0-0.8,0.1-1.2,0.1H496c-0.7-1.8-1.4-3.8-2.8-5.2c-0.6,0.1-1.1,0.5-1.3,1c-0.3,0.5-0.5,1.1-0.8,1.6c-0.6,0.9-1.7,1.4-2.5,2.2
	s-1.3,2-2.1,2.8c-1.2,0.9-2.6,1.4-4,1.5c-2.2,0.5-4.3,1.3-6.2,2.4c-0.7,0.4-1.5,0.8-2.3,1.1c-0.9,0.2-1.8,0.2-2.7,0.1l-6.2-0.5
	c-0.5-0.1-1.1,0-1.6,0.1c-1.3,0.5-2.1,1.8-2,3.2c0.2,1.4,0.9,2.6,2,3.4c1.1,0.8,2.3,1.4,3.5,1.8c5.4,2.1,10.9,3.7,16.5,4.8v1.2
	c3.9,2,8.2,3,12.6,3c0.3,0,0.6,0,0.9-0.2c0.4-0.3,0.7-0.7,0.8-1.2c1.3-3.9,2.1-8,2.5-12.1l0,0c0.8,0,1.5-0.2,2.2-0.6
	c2.1-0.6,4.2,0.9,6.4,1.1c2.7,0.3,5.2-1.3,7.8-2.2c0.4-0.1,0.7-0.3,1.1-0.4c-0.7,0.9-1.6,1.8-2.5,2.5c-1.1,0.8-2.2,1.3-3.3,2.1
	c-0.9,0.8-1.8,1.5-2.8,2.2c-0.7,0.3-1.4,0.6-2.1,0.8c-1.1,0.4-2.1,0.9-3,1.5c-0.8,0.5-1.6,1.2-2.1,2c-0.9,1.2-0.6,2.9,0.7,3.8
	c0.4,0.2,0.8,0.4,1.2,0.5c0.8,0.1,1.7,0.2,2.5,0.1c3.3-0.2,6.7-0.6,10-0.9c1.4-0.1,2.8-0.3,4.2-0.6c0.7-0.2,1.5-0.4,2.2-0.6
	c1.2-0.3,2.5-0.5,3.8-0.6c0.4,0,0.7,0,1.1,0.1c0.8,0.2,1.3,1,2.1,1.2c0.5,0,1,0,1.5-0.2c2.4-0.5,4.9-0.8,7.4-0.8
	c1.1-0.1,2.4-0.3,2.9-1.3c0.6-1.2-0.4-2.7-0.8-4c-0.2-0.9-0.3-1.7-0.3-2.6c-0.2-2.2-0.8-4.3-1.8-6.2c-0.5-0.9-1-1.9-1.4-2.8
	c4.8-1.8,9.4-4.1,13.6-6.9c2.5-1.5,5-3.2,7.8-3.7c3.2-0.7,6.6,0.2,9.8,1.1c7.6,2.2,15.1,4.8,22.4,7.8c3.5,1.4,7,3,10.6,4
	c1,1.4,2.3,2.6,3.8,3.7c2.4,1.5,5.3,2,8.2,2.2c3.8,0.3,7.6,0.5,11.5,0.4c2.9,0,5.9-0.2,8.5-1.6c0.6-0.3,1.2-0.7,1.8-1.2
	c2,0.4,4-0.7,5.6-2.1c2.1-1.8,3.6-4.1,4.3-6.8c0.9-3.6,0.2-7.8,2.4-10.8c0.6-0.8,1.4-1.4,1.9-2.2c0.7-1.1,1.1-2.3,1-3.6l0.1-0.2
	c0.5-1.2,0.8-2.4,1-3.6c0.3-1,0.6-1.9,1-2.9c1.1-2.8,2.1-5.6,2.9-8.5c0.6-1.9,1-3.9,1.4-5.8c0.2-1.6,0.4-3.2,0.5-4.8
	c0.2-2.5,0.6-4.9,1.4-7.3c2-5.6,3.1-11.5,3.3-17.5c0-0.1,0-0.2,0-0.3c6-0.7,10.5-5.8,10.5-11.8c0-1.8-0.4-3.5-1.1-5.1
	C672.8,530.1,673.5,527.4,673.5,524.6z M617,593.3c0.2,0.6,0.4,1.2,0.6,1.8c-0.9-0.9-1.8-1.8-2.8-2.8c0.4,0.1,0.7,0.2,1.1,0.4
	C616.2,592.9,616.6,593.1,617,593.3L617,593.3z M612.5,590.3c-5.5-4.7-11.8-8.4-17.4-13c3,1.5,6,3.3,9,4.9c3.5,2,7,3.9,10.6,5.7
	C614.1,588.9,613.4,589.7,612.5,590.3L612.5,590.3z M614.8,578.4l0.3-0.3c0,0.7,0,1.3,0,1.9c-0.5-0.2-1-0.3-1.5-0.5
	C614,579.1,614.4,578.7,614.8,578.4L614.8,578.4z M566.7,591.2c2.2-2.5,4.2-5.3,5.8-8.3c2.2,3.8,5.7,6.5,8.7,9.7
	C576.4,591.9,571.6,591.4,566.7,591.2L566.7,591.2z"/>
<polygon class="st8" points="574.5,545.1 578,545.8 589.7,563.2 584.5,563.9 "/>
<path class="st9" d="M491,615.6c0.9,3.1,2.1,6.1,3.4,9c3.9-0.8,7.7-1.9,11.5-3.3c-0.7-1.1-1.5-2.2-2.4-3.2c-0.9-1-2-1.9-3.2-2.5
	c-1.2-0.5-2.7-0.1-3.9-0.1C494.5,615.6,492.8,615.6,491,615.6z"/>
<path class="st8" d="M500.3,620.2c-1.9-0.6-3.1-2.6-3.9-4.5s-1.4-4-2.9-5.3c-0.6,0.1-1.1,0.5-1.3,1c-0.3,0.5-0.5,1.1-0.8,1.5
	c-0.6,0.9-1.7,1.3-2.5,2.1s-1.3,1.9-2.1,2.7c-1.2,0.8-2.6,1.4-4,1.5c-2.2,0.5-4.3,1.3-6.3,2.3c-0.7,0.4-1.5,0.8-2.3,1
	c-0.9,0.2-1.8,0.2-2.7,0.1l-6.2-0.5c-0.6-0.1-1.1,0-1.7,0.1c-1.3,0.5-2.1,1.7-2,3.1c0.2,1.3,0.9,2.6,2,3.3c1.1,0.8,2.3,1.4,3.5,1.8
	c5.4,2,11,3.6,16.7,4.8v1.2c4,2,8.3,3,12.7,3c0.3,0,0.7,0,1-0.2c0.4-0.3,0.7-0.7,0.8-1.2c1.5-4.4,2.4-8.9,2.6-13.5
	c0.1-1.2,0-2.3-0.3-3.5C500.2,620.1,501.4,620.6,500.3,620.2"/>
<path class="st8" d="M619.7,596.7c-18.5,1.1-36.7-4.3-55.2-4.9c-2.3-0.1-4.6,0-6.9,0.4c-2.4,0.6-4.6,1.5-6.8,2.6
	c-9.9,4.6-20.2,8.4-30.4,12.2l-11.8,4.4c-2.4,0.9-4.8,1.8-7.3,1.6c-1.1-0.1-2.5-0.2-3.1,0.7c-1.9,2.8-1,7,0.3,10.2
	c0.4,1,1.1,2.2,2.2,2.3c0.8-0.1,1.5-0.2,2.2-0.6c2.1-0.6,4.3,0.9,6.5,1.1c2.7,0.3,5.3-1.3,7.8-2.2c4.3-1.6,8.9-1.5,13.4-2.3
	c7.5-1.2,14.5-4.7,21-8.7c2.5-1.5,5-3.1,7.8-3.7c3.3-0.6,6.6,0.2,9.8,1.1c7.7,2.2,15.2,4.7,22.6,7.7c3.8,1.7,7.8,3.1,11.8,4.3
	c8.8,2.3,18,1.8,26.4-1.5c3-1.2,6.2-3.2,6.3-6.4c0.1-1.8-1.3-3.4-2.2-5c-0.6-1-1.2-2-1.9-3C629.2,602.5,625.3,596.4,619.7,596.7z"/>
<path class="st3" d="M619.7,596.7c-18.5,1.1-36.7-4.3-55.2-4.9c-2.3-0.1-4.6,0-6.9,0.4c-2.4,0.6-4.6,1.5-6.8,2.6
	c-9.9,4.6-20.2,8.4-30.4,12.2l-11.8,4.4c-2.4,0.9-4.8,1.8-7.3,1.6c-1.1-0.1-2.5-0.2-3.1,0.7c-1.9,2.8-1,7,0.3,10.2
	c0.4,1,1.1,2.2,2.2,2.3c0.8-0.1,1.5-0.2,2.2-0.6c2.1-0.6,4.3,0.9,6.5,1.1c2.7,0.3,5.3-1.3,7.8-2.2c4.3-1.6,8.9-1.5,13.4-2.3
	c7.5-1.2,14.5-4.7,21-8.7c2.5-1.5,5-3.1,7.8-3.7c3.3-0.6,6.6,0.2,9.8,1.1c7.7,2.2,15.2,4.7,22.6,7.7c3.8,1.7,7.8,3.1,11.8,4.3
	c8.8,2.3,18,1.8,26.4-1.5c3-1.2,6.2-3.2,6.3-6.4c0.1-1.8-1.3-3.4-2.2-5c-0.6-1-1.2-2-1.9-3C629.2,602.5,625.3,596.4,619.7,596.7z"/>
<path class="st9" d="M526.4,616.5c2.9,1,5.8,1.9,8.7,2.7c1.7-2.7,4.7-4.6,5.4-7.7c0-0.1,0-0.3,0-0.4c-0.1-0.1-0.2-0.2-0.3-0.3
	c-2.1-1.2-4.4-1.8-6.8-2c-1.9-0.1-2.8,1.9-3.6,3.2C529.5,612.6,527.2,616.7,526.4,616.5z"/>
<path class="st8" d="M530.5,614.5c-1.7-0.3-3.3-1.3-4.2-2.8c-0.4-0.7-0.8-1.7-1.7-1.6s-1.1,1-1.3,1.7c-0.6,2.8-1.4,5.5-2.4,8.2
	c-1,2.7-2.8,5-5.1,6.7c-1.1,0.7-2.3,1.3-3.3,2.1c-0.9,0.8-1.8,1.5-2.8,2.1c-0.7,0.3-1.4,0.6-2.2,0.8c-1.1,0.4-2.1,0.9-3.1,1.5
	c-0.8,0.5-1.6,1.2-2.1,2c-0.5,0.8-0.6,1.9-0.2,2.8c0.4,0.7,1.2,1.2,2,1.4c0.8,0.1,1.7,0.2,2.5,0.1c3.4-0.2,6.7-0.5,10.1-0.8
	c1.4-0.1,2.8-0.3,4.2-0.6c0.7-0.2,1.5-0.4,2.2-0.6c1.3-0.3,2.6-0.5,3.8-0.6c0.4,0,0.8,0,1.1,0.1c0.8,0.2,1.3,1,2.1,1.2
	c0.5,0.1,1,0,1.5-0.2c2.5-0.5,5-0.8,7.5-0.8c1.1-0.1,2.4-0.3,2.9-1.3c0.6-1.2-0.4-2.6-0.8-3.9c-0.2-0.8-0.3-1.7-0.3-2.6
	c-0.2-2.1-0.8-4.2-1.8-6.1c-0.9-1.6-2-3.3-1.4-5c0.3-0.5,0.5-1.1,0.6-1.7C538.2,613.9,532,614.9,530.5,614.5z"/>
<path class="st9" d="M592,567.1c-3.3-1.4-5.9-4-7.4-7.3c-0.3-0.7-0.6-1.4-0.8-2.1c-1-2.3-2.5-4.4-4.4-6.1c-0.4-0.5-1-0.7-1.6-0.7
	c-0.6,0.2-1.1,0.7-1.2,1.3c-0.2,0.7-0.2,1.3-0.1,2c0.2,1.6,0.4,3.1,0.8,4.6l0.9,4.1c0.1,0.6,0.3,1.2,0.6,1.8
	c0.4,0.7,0.9,1.3,1.5,1.8c0.8,0.8,1.7,1.5,2.5,2.2c0.5,0.4,1,0.8,1.5,1.1c0.9,0.4,1.8,0.7,2.8,0.8c3.7,0.7,7.4,1.7,10.5,4
	c0,0,0-2.7-0.1-3c0-0.8-0.3-1.6-0.8-2.2C595.5,568.1,593.5,567.8,592,567.1z"/>
<path class="st3" d="M592,567.1c-3.3-1.4-5.9-4-7.4-7.3c-0.3-0.7-0.6-1.4-0.8-2.1c-1-2.3-2.5-4.4-4.4-6.1c-0.4-0.5-1-0.7-1.6-0.7
	c-0.6,0.2-1.1,0.7-1.2,1.3c-0.2,0.7-0.2,1.3-0.1,2c0.2,1.6,0.4,3.1,0.8,4.6l0.9,4.1c0.1,0.6,0.3,1.2,0.6,1.8
	c0.4,0.7,0.9,1.3,1.5,1.8c0.8,0.8,1.7,1.5,2.5,2.2c0.5,0.4,1,0.8,1.5,1.1c0.9,0.4,1.8,0.7,2.8,0.8c3.7,0.7,7.4,1.7,10.5,4
	c0,0,0-2.7-0.1-3c0-0.8-0.3-1.6-0.8-2.2C595.5,568.1,593.5,567.8,592,567.1z"/>
<ellipse class="st8" cx="629.6" cy="531.4" rx="4.5" ry="4.5"/>
<path class="st8" d="M626.8,528.7c-1.2-0.3-2.5-0.1-3.5,0.5c-0.5,0.5-0.9,1-1.2,1.7c-1,1.7-1.8,3.6-2.3,5.5c-0.4,1.7-0.5,3.4-1,5
	c-0.9,3-3.3,5.5-3.5,8.7c-0.1,1.4,0.1,3-0.9,4c-0.3,0.2-0.5,0.4-0.8,0.6c-0.7,0.5-1.3,1.1-1.8,1.8c-0.3,0.6-0.7,1.2-1.2,1.7
	c-0.9,0.7-2.4,0.6-2.9,1.7s0.7,2.3,0.4,3.4c-0.2,0.9-1.3,1.4-2,2c-0.8,0.9-1.4,2-1.7,3.2c-3,0.6-6.2-0.2-8.6-2.2
	c1.2,3.1,1.3,6.5,1.3,9.8c0.1,1.1-0.1,2.1-0.8,3c3.6,0.1,7.1,1,10.5,1.8c1.5,0.5,3.1,0.5,4.6,0c0.8-0.4,1.5-1,2.1-1.7
	c1.9-1.9,3.9-4,4.3-6.7c0.1-1.5,0.1-3,0.1-4.5c0.2-1.9,0.6-3.7,1.2-5.5c1-3.7,1.7-7.5,2-11.3c0.2-2.4,2.2-4.3,3.3-6.4
	c2-4,4.1-8.2,4.3-12.6C628.8,530.6,628.3,528.9,626.8,528.7z"/>
<path class="st3" d="M626.8,528.7c-1.2-0.3-2.5-0.1-3.5,0.5c-0.5,0.5-0.9,1-1.2,1.7c-1,1.7-1.8,3.6-2.3,5.5c-0.4,1.7-0.5,3.4-1,5
	c-0.9,3-3.3,5.5-3.5,8.7c-0.1,1.4,0.1,3-0.9,4c-0.3,0.2-0.5,0.4-0.8,0.6c-0.7,0.5-1.3,1.1-1.8,1.8c-0.3,0.6-0.7,1.2-1.2,1.7
	c-0.9,0.7-2.4,0.6-2.9,1.7s0.7,2.3,0.4,3.4c-0.2,0.9-1.3,1.4-2,2c-0.8,0.9-1.4,2-1.7,3.2c-3,0.6-6.2-0.2-8.6-2.2
	c1.2,3.1,1.3,6.5,1.3,9.8c0.1,1.1-0.1,2.1-0.8,3c3.6,0.1,7.1,1,10.5,1.8c1.5,0.5,3.1,0.5,4.6,0c0.8-0.4,1.5-1,2.1-1.7
	c1.9-1.9,3.9-4,4.3-6.7c0.1-1.5,0.1-3,0.1-4.5c0.2-1.9,0.6-3.7,1.2-5.5c1-3.7,1.7-7.5,2-11.3c0.2-2.4,2.2-4.3,3.3-6.4
	c2-4,4.1-8.2,4.3-12.6C628.8,530.6,628.3,528.9,626.8,528.7z"/>
<path class="st8" d="M622.6,600.6c-3.8-1.8-6.7-5.2-9.8-8.2c-5.9-5.6-13.2-9.5-19.4-14.8c-4.1-3.5-7.8-7.5-12.4-10.4
	c-4-2.6-8.5-4.1-13.3-4.7c-0.5-0.1-1.1-0.1-1.6,0.1c-0.6,0.3-1.1,0.7-1.5,1.2c-2,2.3-3.8,4.7-5.3,7.3c-7.9,13.4-19.1,24.7-28.5,37.2
	c-0.6,0.6-0.7,1.6-0.1,2.3l1.9,3.7c1.1,2.1,2.8,4.5,5,4.1c1-0.3,1.9-0.9,2.7-1.7l8.5-8.1l8.9-8.5c5.2-5,10.5-10.1,13.9-16.5
	c2.7,4.6,7.4,7.6,10.6,11.9c1.2,1.6,2.2,3.4,3.3,5.1c1.8,2.7,3.8,5.3,5.8,7.8l10.2,13c1.3,1.9,2.9,3.5,4.7,4.8
	c2.4,1.5,5.4,1.9,8.2,2.2c3.8,0.4,7.7,0.5,11.5,0.4c2.9,0,6-0.2,8.6-1.5s4.8-4,4.7-6.9c-0.2-1.5-0.7-3-1.5-4.3
	C634.3,609.5,629.5,603.9,622.6,600.6z"/>
<ellipse class="st10" cx="632.4" cy="534.5" rx="3.5" ry="3.5"/>
<path class="st9" d="M631.6,531.9c0.8,1.6,0.9,3.3,0.4,5c-0.5,1.6-1.3,3.2-2.2,4.6c-0.8,1.5-1.8,2.9-2.9,4.1
	c5.3,0.3,10.5-1.8,15.2-4.4c3.8-2,7.6-4.5,9.6-8.4c-1.2,0.3-2.5,0.1-3.5-0.7c-1-0.7-1.9-1.6-2.7-2.5l-2.7-3
	c-0.6-0.7-1.2-1.4-1.7-2.2c-0.6-1.1-0.8-2.3-0.7-3.5c-1.1,1.1-2.3,2.1-3.5,2.9c-1.9,1.2-4,2.2-5.9,3.4c-0.7,0.4-2.2,1.2-1.8,2
	S631.1,531,631.6,531.9z"/>
<path class="st3" d="M631.6,531.9c0.8,1.6,0.9,3.3,0.4,5c-0.5,1.6-1.3,3.2-2.2,4.6c-0.8,1.5-1.8,2.9-2.9,4.1
	c5.3,0.3,10.5-1.8,15.2-4.4c3.8-2,7.6-4.5,9.6-8.4c-1.2,0.3-2.5,0.1-3.5-0.7c-1-0.7-1.9-1.6-2.7-2.5l-2.7-3
	c-0.6-0.7-1.2-1.4-1.7-2.2c-0.6-1.1-0.8-2.3-0.7-3.5c-1.1,1.1-2.3,2.1-3.5,2.9c-1.9,1.2-4,2.2-5.9,3.4c-0.7,0.4-2.2,1.2-1.8,2
	S631.1,531,631.6,531.9z"/>
<path class="st10" d="M631.7,532.4c-1.1,1.6-1.1,3.6,0,5.2c0.2,0.2,0.7,1.4,1,1.4c0.2,0,0.5-0.1,0.6-0.3c1.2-1.3,2.3-2.6,3.4-4
	c1.1-1.4,2.6-2.4,4.3-2.8c2.1-0.3,4.1,0.8,5.9,1.8c0.8,0.4,1.5,1,2,1.7c0.4,0.7,0.6,1.5,0.7,2.3c0.5,4.8,0.7,9.6,0.6,14.4
	c0.1,3.5-0.1,6.9-0.7,10.3c-0.3,1.8-0.8,3.5-1.1,5.3c-0.2,1.6-0.2,3.1-0.2,4.7v6.6c0,1.2,0,2.4,0.3,3.6c0.4,1.4,0.9,2.8,1.5,4.2
	c0.5,1.6,0.8,3.3,1,5l0.9,6.8c0.3,2.2,0.5,4.5-0.8,6.2c-0.6,0.8-1.4,1.4-2,2.2c-2.2,2.9-1.5,7-2.5,10.6c-0.7,2.6-2.3,4.9-4.3,6.7
	c-1.6,1.3-3.7,2.4-5.7,2c-2.8-0.5-4.4-3.4-5.2-6.1s-1-5.7-2.7-8c-1.3-1.9-3.4-3.1-5.3-4.4s-3.7-3.1-4.1-5.4c-0.2-1-0.1-2-0.2-3
	c-0.3-2.6-2-4.8-4.4-5.8c-1.4-0.5-3.2-0.8-4-2c2-1.3,3.5-3.3,4.2-5.6c0.6-2.3,1-4.6,1-7l0.5-7.9c0.2-3.5,0.3-7.1,1.9-10.3
	c0.7-1.4,1.6-2.8,2.3-4.2c1-2,1.8-4,2.5-6.1c1.1-3.2,2.3-6.5,3.3-9.8c0.4-1.6,1-3.1,1.8-4.6C628.9,534.5,630.1,532.7,631.7,532.4z"
	/>
<path class="st8" d="M614.1,584l2.1,0.1l0.5-3.2c0.1-0.6,0.2-1.3,0.4-1.8c0.3-0.6,0.8-1.2,1.2-1.8c2.1-2.9,1.9-6.8,2.4-10.3
	c0.7-4.7,2.7-9.2,4.6-13.5l4.1-9.1c0.4-0.7,0.7-1.5,0.9-2.3c0.2-0.9,0.3-1.8,0.2-2.7c0-1.4,0.5-6.5,0.5-7.9c0-0.5-1.1-0.2-1.4-0.7
	c-0.5-1-1.2,1.7-2.2,2.3c-0.9,0.7-1.6,1.7-1.9,2.8c-0.9,2.3-1.4,4.7-2.2,7c-0.7,2.4-2,4.5-3.8,6.2c-0.8,0.7-1.8,1.3-2.6,2.1
	c-2.5,2.5-2.8,6.5-2.9,10C614,563.3,613.6,584,614.1,584z"/>
<path class="st8" d="M644.3,528.6c-2,0.8-3.2,3-3.7,5.1s-0.8,4.4-1.9,6.3c-2.6,4.5-9.1,5.8-10.9,10.6c-0.5,1.6-0.7,3.3-0.7,5
	c-0.3,3.5-1.5,6.8-1.8,10.2c-0.2,2.7-0.1,5.4,0.2,8l2.3,27.2c0.4,4,0.2,8.1-0.7,12c2.3,0.3,4.7-0.1,6.9-1.1c2.2-1,4.1-2.3,6.2-3.5
	c3.5-2,7.5-3.3,10.6-6c0.6-0.4,1-1,1.4-1.6c0.5-1.1,0.8-2.4,1-3.6c0.3-1,0.6-1.9,1-2.8c1.1-2.7,2.1-5.5,3-8.4c0.6-1.9,1-3.8,1.4-5.8
	c0.2-1.5,0.4-3.1,0.5-4.7c0.2-2.5,0.6-4.9,1.5-7.2c2-5.5,3.1-11.4,3.3-17.2c0.1-0.9,0-1.7-0.2-2.5c-0.3-1-0.8-2-1.4-2.9
	c-1-1.8-1.5-3.8-2.4-5.6c-2-4.1-5.6-7.2-9.3-9.8C648.5,529.2,646.4,527.9,644.3,528.6z"/>
<path class="st9" d="M596.6,573.1c-1.6-0.8-3.1-2-4.3-3.3c-0.6-0.7-1-1.4-1.6-2.1c-1.5-1.6-3.4-2.7-5.5-3.1
	c-2.1-0.5-4.2-0.7-6.3-0.6c-1.4-0.1-2.9,0.1-4.2,0.5c-1.4,0.5-2.4,1.6-2.8,3c-0.3,1.7,0.8,3.3,2.1,4.4c1.2,1,2.7,1.7,4.2,2.1
	c1.3,0.2,2.6,0.4,3.8,0.5c7.6,0.8,14.3,4.9,20.9,8.7c5.8,3.3,11.8,6.4,17.8,9.2c0.2-1.8,0.3-3.6,0.3-5.5c0-1.4-0.1-3.4-1.4-4.2
	c-1.5-0.9-4-1.2-5.7-1.7c-3.9-1.3-7.7-2.8-11.4-4.6C600.5,575.3,598.5,574.2,596.6,573.1z"/>
<ellipse class="st9" cx="629.6" cy="516.8" rx="13.5" ry="13.5"/>
<path class="st8" d="M648.2,544c-1.1,1.5-1.9,3.1-2.6,4.9c-1.7,3.4-4.3,6.4-5.6,10c-1.4,3.8-1.3,8.3-4,11.2c-0.5,0.5-0.9,1-1.2,1.7
	c0,0.4-0.1,0.8-0.1,1.2c-0.4,1.1-2.2,1.1-2.5,2.2c-0.1,0.3,0,0.7-0.2,1c-0.3,0.7-1.2,0.8-1.8,1.2c-1.3,0.9-1,3-2,4.2
	c-0.8,1-2.1,1.4-3.4,1.2c-1.2-0.3-2.4-0.7-3.5-1.3c-0.4-0.2-0.8-0.3-1.2-0.4c-0.5,0-1,0.2-1.5,0.5c-2.5,1.6-3.7,4.7-3.6,7.7
	c0.2,3,0.9,5.9,2.1,8.6c0.1,0.5,0.4,0.9,0.7,1.3c0.8,0.9,2.3,0.7,3.4,0.2c1-0.6,2.1-1.1,3.3-1.5c2.1-0.4,4.1,1.1,6.2,0.9
	c1.5-0.2,3-0.9,4.2-1.9c2.1-1.3,4.1-2.9,5.7-4.8c0.9-1.2,1.6-2.6,2.4-3.9c1-1.6,2.2-3.1,3.4-4.5l7.8-9.5c0.8-0.9,1.5-1.9,2.1-2.9
	c0.7-1.4,1.2-2.8,1.6-4.3c0.8-2.5,1.4-5.1,1.6-7.7c0-2.2-0.2-4.4-0.6-6.5c-0.3-2.1-0.8-4.2-1.7-6.2
	C655.4,543.2,651.3,540.3,648.2,544z"/>
<path class="st11" d="M675.2,526.4c0-4.9-2.3-9.5-6.2-12.3c-0.1-8.8-6.6-16.2-15.3-17.5c-1.9-9.5-11.1-15.6-20.6-13.7
	c-7.2,1.5-12.8,7.3-13.9,14.6c-5.6-1.3-10.7,0.4-11.7,3.8c-1,3.6,3,7.8,8.9,9.4c1.9,0.5,3.8,0.7,5.7,0.6c2.8,4.1,7.2,6.8,12.1,7.5
	c1.5,6.7,6.5,11.9,13.2,13.6c0.9,2.2,2.3,4.1,4.1,5.6c0,0.4-0.1,0.8-0.1,1.3c-0.3,6.3,4.6,11.6,10.9,11.9
	c6.3,0.3,11.6-4.6,11.9-10.9c0-0.3,0-0.6,0-1c0-1.7-0.4-3.4-1.1-5C674.5,531.8,675.2,529.1,675.2,526.4z"/>
<path class="st3" d="M611.3,501.9c0.9-3.5,6-5.1,11.7-3.8c1.4-8.6,8.7-14.9,17.3-15c0.4,0,0.8,0,1.2,0c-1.6-0.5-3.3-0.7-5-0.7
	c-8.7,0.1-16,6.4-17.3,15c-5.6-1.3-10.7,0.4-11.7,3.8c-1,3.6,3,7.8,8.9,9.4c1.1,0.3,2.2,0.5,3.4,0.6
	C614.2,509.6,610.4,505.5,611.3,501.9z"/>
<path class="st3" d="M655.2,539.9c0-0.4,0-0.9,0.1-1.3c-1.8-1.5-3.2-3.4-4.1-5.6c-6.6-1.7-11.7-6.9-13.2-13.6
	c-4.9-0.7-9.3-3.4-12.1-7.5c-1.1,0.1-2.2,0.1-3.4-0.1c2.8,3.8,7,6.2,11.6,6.9c1.5,6.7,6.5,11.9,13.2,13.6c0.9,2.2,2.3,4.1,4.1,5.6
	c0,0.4-0.1,0.8-0.1,1.3c-0.1,6.4,5,11.7,11.3,11.8C658.1,549.3,655.1,544.8,655.2,539.9z"/>
<ellipse transform="matrix(0.7963 -0.6049 0.6049 0.7963 -185.1256 489.3853)" class="st9" cx="634.1" cy="519.6" rx="2.1" ry="2.8"/>
<path class="st6" d="M313.8,589.2l13.3-7.8c-1.8-3.1-4.1-5.8-6.8-8.2l-25.1,7.8l19.7-11.6c-15.5-8.5-34.9-2.8-43.4,12.7
	c-2.6,4.7-3.9,10-3.9,15.4c0,17.7,14.3,18.3,32,18.3s32-0.6,32-18.3c0-4.5-0.9-8.9-2.8-13L313.8,589.2z"/>
<path class="st3" d="M317.2,606.4c-1.4-1.4-3-2.7-4.7-3.7c-2.4-1.6-4.9-3.2-7.8-3.8c-2.5-0.5-5.1-0.1-7.6-0.2
	c-4.4-0.3-8.6-2.2-11.7-5.4c-1.8-1.9-3.2-4.2-5.4-5.6c-2.4-1.5-5.3-2-8.1-1.5c-0.8,0.1-1.6,0.3-2.4,0.5c-1.3,3.5-1.9,7.2-1.9,10.9
	c0,17.7,14.3,18.3,32,18.3c8.6,0,16.4-0.1,22.1-2.3l-1-1.8C319.7,609.8,318.6,608,317.2,606.4z"/>
</svg>
