<?xml version="1.0"?>
<svg xmlns="http://www.w3.org/2000/svg" xmlns:xlink="http://www.w3.org/1999/xlink" xmlns:svgjs="http://svgjs.com/svgjs" version="1.1" width="512" height="512" x="0" y="0" viewBox="0 0 24 24" style="enable-background:new 0 0 512 512" xml:space="preserve" class=""><g><path xmlns="http://www.w3.org/2000/svg" d="m21.5 12.25c-.414 0-.75-.336-.75-.75 0-4.825-3.925-8.75-8.75-8.75s-8.75 3.925-8.75 8.75c0 .414-.336.75-.75.75s-.75-.336-.75-.75c0-5.652 4.598-10.25 10.25-10.25s10.25 4.598 10.25 10.25c0 .414-.336.75-.75.75z" fill="#ff4f5a" data-original="#000000" style=""/><path xmlns="http://www.w3.org/2000/svg" d="m3.25 4h-2.5c-.414 0-.75-.336-.75-.75v-2.5c0-.414.336-.75.75-.75h2.5c.414 0 .75.336.75.75v2.5c0 .414-.336.75-.75.75zm-1.75-1.5h1v-1h-1z" fill="#ff4f5a" data-original="#000000" style=""/><path xmlns="http://www.w3.org/2000/svg" d="m21.5 15c-1.103 0-2-.897-2-2s.897-2 2-2 2 .897 2 2-.897 2-2 2zm0-2.5c-.276 0-.5.224-.5.5s.224.5.5.5.5-.224.5-.5-.224-.5-.5-.5z" fill="#ff4f5a" data-original="#000000" style=""/><path xmlns="http://www.w3.org/2000/svg" d="m20.5 2.75h-17c-.414 0-.75-.336-.75-.75s.336-.75.75-.75h17c.414 0 .75.336.75.75s-.336.75-.75.75z" fill="#ff4f5a" data-original="#000000" style=""/><path xmlns="http://www.w3.org/2000/svg" d="m13.756 16.5c-.146 0-.293-.042-.422-.131-.342-.233-.43-.7-.196-1.042l2.26-3.309-3.398-7.875-3.398 7.875 2.26 3.309c.234.342.146.809-.196 1.042-.341.234-.809.147-1.042-.196l-2.493-3.65c-.145-.212-.171-.484-.069-.72l4.25-9.85c.237-.549 1.14-.549 1.377 0l4.25 9.85c.102.236.076.508-.069.72l-2.493 3.65c-.146.213-.381.327-.621.327z" fill="#ff4f5a" data-original="#000000" style=""/><path xmlns="http://www.w3.org/2000/svg" d="m16.249 24c-.37 0-.692-.274-.743-.651l-.884-6.632c-.016-.124-.123-.217-.248-.217h-4.749c-.125 0-.231.093-.248.217l-.884 6.632c-.055.411-.438.696-.843.645-.411-.055-.699-.432-.645-.843l.884-6.632c.118-.866.863-1.519 1.736-1.519h4.749c.873 0 1.619.653 1.734 1.518l.885 6.633c.055.411-.234.788-.645.843-.033.004-.066.006-.099.006z" fill="#ff4f5a" data-original="#000000" style=""/><path xmlns="http://www.w3.org/2000/svg" d="m12 11c-.414 0-.75-.336-.75-.75v-7.5c0-.414.336-.75.75-.75s.75.336.75.75v7.5c0 .414-.336.75-.75.75z" fill="#ff4f5a" data-original="#000000" style=""/><path xmlns="http://www.w3.org/2000/svg" d="m2.5 15c-1.103 0-2-.897-2-2s.897-2 2-2 2 .897 2 2-.897 2-2 2zm0-2.5c-.276 0-.5.224-.5.5s.224.5.5.5.5-.224.5-.5-.224-.5-.5-.5z" fill="#ff4f5a" data-original="#000000" style=""/><path xmlns="http://www.w3.org/2000/svg" d="m23.25 4h-2.5c-.414 0-.75-.336-.75-.75v-2.5c0-.414.336-.75.75-.75h2.5c.414 0 .75.336.75.75v2.5c0 .414-.336.75-.75.75zm-1.75-1.5h1v-1h-1z" fill="#ff4f5a" data-original="#000000" style=""/></g></svg>
